<svg xmlns="http://www.w3.org/2000/svg" viewBox="0 0 180 110" role="img" aria-labelledby="title desc">
  <title id="title">Fairbridge Technologies Mark</title>
  <desc id="desc">Stylized FBT initials with blue and red motion arcs.</desc>
  <g fill="none" fill-rule="evenodd">
    <path d="M26 53c12-17 29-29 50-34" stroke="#1fa2ef" stroke-width="7" stroke-linecap="round"/>
    <path d="M20 67c18-18 41-30 68-35" stroke="#1fa2ef" stroke-width="7" stroke-linecap="round" opacity="0.92"/>
    <path d="M12 82c23-18 49-28 82-31" stroke="#1fa2ef" stroke-width="7" stroke-linecap="round" opacity="0.82"/>

    <path d="M109 48c24-10 46-18 68-18 12 0 23 3 33 10" stroke="#ff1616" stroke-width="7" stroke-linecap="round"/>
    <path d="M107 61c30-10 57-13 81-8 10 2 20 7 30 16" stroke="#ff1616" stroke-width="7" stroke-linecap="round" opacity="0.92"/>
    <path d="M104 76c31-7 58-5 82 7 8 4 15 10 23 18" stroke="#ff1616" stroke-width="7" stroke-linecap="round" opacity="0.82"/>

    <path d="M78 21h17c6 0 10 4 10 10v8H88v13h16v11H88v24H78z" fill="#9f9f9f"/>
    <path d="M114 21h16c13 0 21 6 21 18 0 6-3 11-8 14 5 2 9 7 9 15 0 13-9 20-23 20h-15zm15 29c7 0 11-2 11-8s-4-8-11-8h-4v16zm1 24c7 0 12-3 12-9 0-7-5-10-12-10h-5v19z" fill="#9f9f9f"/>
    <path d="M161 21h36v12h-12v54h-12V33h-12z" fill="#9f9f9f" transform="translate(-5 0)"/>
  </g>
</svg>